# xmcd CD database file
#
# Track frame offsets:
#	187
#	14077
#	33822
#	47672
#
# Disc length: 895 seconds
#
# Revision: 0
# Processed by: cddbd v1.5.1PL0 Copyright (c) Steve Scherf et al.
# Submitted via: CDex 1.51
#
DISCID=29037d04
DTITLE=宮村優子 - くるみパン
DYEAR=1996
DGENRE=JPop
TTITLE0=くるみパン
TTITLE1=そんなKISSじゃ許さない
TTITLE2=くるみパン(オリジナル　カラオケ)
TTITLE3=そんなKISSじゃ許さない(オリジナル　カラオケ)
EXTD=YEAR: 1996
EXTT0=
EXTT1=
EXTT2=
EXTT3=
PLAYORDER=
